ffmpeg started on 2026-03-30 at 17:04:25
Report written to "D:\Convert\FFMetrics\reports\ssim_report-6.txt"
Log level: 32
Command line:
ffmpeg -hide_banner -nostdin -r 24/1 -i "F:\\\xc0\xed\xe8\xec\xe5\\LightFamily\\\xdf \xef\xf0\xe8\xe1\xf0\xe0\xeb \xea \xf0\xf3\xea\xe0\xec \xe4\xe5\xe2\xf3\xf8\xea\xf3 \xe8 \xf2\xe5\xef\xe5\xf0\xfc \xff \xf3\xf7\xf3 \xe5\xb8 \xe2\xf1\xff\xea\xe8\xec \xef\xeb\xee\xf5\xe8\xec \xe2\xe5\xf9\xe0\xec\\LightFamilyDUB_\xdf_\xef\xf0\xe8\xe1\xf0\xe0\xeb_\xea_\xf0\xf3\xea\xe0\xec_\xe4\xe5\xe2\xf3\xf8\xea\xf3_\xe8_\xf2\xe5\xef\xe5\xf0\xfc_\xf3\xf7\xf3_\xe5\xb8_\xe2\xf1\xff\xea\xe8\xec_01_HEVC.mkv" -r 24/1 -i "F:\\\xc0\xed\xe8\xec\xe5\\LightFamily\\\xdf \xef\xf0\xe8\xe1\xf0\xe0\xeb \xea \xf0\xf3\xea\xe0\xec \xe4\xe5\xe2\xf3\xf8\xea\xf3 \xe8 \xf2\xe5\xef\xe5\xf0\xfc \xff \xf3\xf7\xf3 \xe5\xb8 \xe2\xf1\xff\xea\xe8\xec \xef\xeb\xee\xf5\xe8\xec \xe2\xe5\xf9\xe0\xec\\LightFamilyDUB_\xdf_\xef\xf0\xe8\xe1\xf0\xe0\xeb_\xea_\xf0\xf3\xea\xe0\xec_\xe4\xe5\xe2\xf3\xf8\xea\xf3_\xe8_\xf2\xe5\xef\xe5\xf0\xfc_\xf3\xf7\xf3_\xe5\xb8_\xe2\xf1\xff\xea\xe8\xec_01.mp4" -lavfi "[0:v]settb=AVTB,setpts=PTS-STARTPTS,format=pix_fmts=yuv420p10le,fps=24/1,scale=1920:1080:flags=lanczos:param0=3:out_range=limited:out_chroma_loc=left,setsar=1/1,setdar=(1920/1080)*(1/1)[main];[1:v]settb=AVTB,setpts=PTS-STARTPTS,format=pix_fmts=yuv420p,fps=24/1,scale=1920:1080:flags=lanczos:param0=3:out_range=limited:out_chroma_loc=left,setsar=1/1,setdar=(1920/1080)*(1/1)[ref];[main][ref]ssim=eof_action=endall:stats_file='D\\:/Convert/FFMetrics/logs/ssim_logfile-6.txt'" -f null -
Input #0, matroska,webm, from 'F:\Аниме\LightFamily\Я прибрал к рукам девушку и теперь я учу её всяким плохим вещам\LightFamilyDUB_Я_прибрал_к_рукам_девушку_и_теперь_учу_её_всяким_01_HEVC.mkv':
  Metadata:
    HD_VIDEO        : 0
    MAJOR_BRAND     : mp42
    MINOR_VERSION   : 512
    COMPATIBLE_BRANDS: mp42
    ITUNMOVI        : <?xml version="1.0" encoding="UTF-8"?><!DOCTYPE plist PUBLIC "-//Apple Computer//DTD PLIST 1.0//EN"  "http://www.apple.com/DTDs/PropertyList-1.0.dtd"><plist version="1.0"><dict><key>studio</key><string>studio</string><key>cast</key><array><dict><key>name<
    MEDIA_TYPE      : 9
    SEASON_NUMBER   : 0
    EPISODE_SORT    : 0
    ENCODER         : Lavf61.7.100
  Duration: 00:23:41.13, start: 0.000000, bitrate: 1049 kb/s
  Stream #0:0(eng): Video: hevc (Main 10), yuv420p10le(tv, progressive), 1920x1080 [SAR 1:1 DAR 16:9], 24 fps, 24 tbr, 1k tbn (default)
      Metadata:
        HANDLER_NAME    : VideoHandler
        VENDOR_ID       : [0][0][0][0]
        ENCODER         : Lavc61.19.100 libx265
        BPS             : 914938
        DURATION        : 00:23:41.124666666
        NUMBER_OF_FRAMES: 34107
        NUMBER_OF_BYTES : 162530074
        _STATISTICS_WRITING_APP: mkvpropedit v94.0 ('Initiate') 64-bit
        _STATISTICS_WRITING_DATE_UTC: 2026-03-29 15:00:14
        _STATISTICS_TAGS: BPS DURATION NUMBER_OF_FRAMES NUMBER_OF_BYTES
  Stream #0:1(eng): Audio: aac (LC), 48000 Hz, stereo, fltp (default)
      Metadata:
        HANDLER_NAME    : SoundHandler
        VENDOR_ID       : [0][0][0][0]
        ENCODER         : Lavc61.19.100 aac
        BPS             : 130760
        DURATION        : 00:23:41.035000000
        NUMBER_OF_FRAMES: 66612
        NUMBER_OF_BYTES : 23226818
        _STATISTICS_WRITING_APP: mkvpropedit v94.0 ('Initiate') 64-bit
        _STATISTICS_WRITING_DATE_UTC: 2026-03-29 15:00:14
        _STATISTICS_TAGS: BPS DURATION NUMBER_OF_FRAMES NUMBER_OF_BYTES
[mov,mp4,m4a,3gp,3g2,mj2 @ 0000025a93179b00] Detected creation time before 1970, parsing as unix timestamp.
[mov,mp4,m4a,3gp,3g2,mj2 @ 0000025a93179b00] Detected creation time before 1970, parsing as unix timestamp.
Input #1, mov,mp4,m4a,3gp,3g2,mj2, from 'F:\Аниме\LightFamily\Я прибрал к рукам девушку и теперь я учу её всяким плохим вещам\LightFamilyDUB_Я_прибрал_к_рукам_девушку_и_теперь_учу_её_всяким_01.mp4':
  Metadata:
    major_brand     : mp42
    minor_version   : 512
    compatible_brands: mp42
    creation_time   : 2024-11-18T11:56:20.000000Z
    media_type      : 9
    season_number   : 0
    episode_sort    : 0
    hd_video        : 0
    iTunMOVI        : <?xml version="1.0" encoding="UTF-8"?><!DOCTYPE plist PUBLIC "-//Apple Computer//DTD PLIST 1.0//EN"  "http://www.apple.com/DTDs/PropertyList-1.0.dtd"><plist version="1.0"><dict><key>studio</key><string>studio</string><key>cast</key><array><dict><key>name<
  Duration: 00:23:41.17, start: 0.000000, bitrate: 8205 kb/s
  Stream #1:0[0x1](eng): Video: h264 (Main) (avc1 / 0x31637661), yuv420p(progressive), 1920x1080 [SAR 1:1 DAR 16:9], 8071 kb/s, 24 fps, 24 tbr, 90k tbn (default)
      Metadata:
        creation_time   : 2024-11-18T11:56:20.000000Z
        handler_name    : VideoHandler
        vendor_id       : [0][0][0][0]
        encoder         : h264
  Stream #1:1[0x2](eng): Audio: aac (LC) (mp4a / 0x6134706D), 44100 Hz, stereo, fltp, 127 kb/s (default)
      Metadata:
        creation_time   : 2024-11-18T11:56:20.000000Z
        handler_name    : SoundHandler
        vendor_id       : [0][0][0][0]
Stream mapping:
  Stream #0:0 (hevc) -> settb:default
  Stream #1:0 (h264) -> settb:default
  ssim:default -> Stream #0:0 (wrapped_avframe)
  Stream #0:1 -> #0:1 (aac (native) -> pcm_s16le (native))
Output #0, null, to 'pipe:':
  Metadata:
    HD_VIDEO        : 0
    MAJOR_BRAND     : mp42
    MINOR_VERSION   : 512
    COMPATIBLE_BRANDS: mp42
    ITUNMOVI        : <?xml version="1.0" encoding="UTF-8"?><!DOCTYPE plist PUBLIC "-//Apple Computer//DTD PLIST 1.0//EN"  "http://www.apple.com/DTDs/PropertyList-1.0.dtd"><plist version="1.0"><dict><key>studio</key><string>studio</string><key>cast</key><array><dict><key>name<
    MEDIA_TYPE      : 9
    SEASON_NUMBER   : 0
    EPISODE_SORT    : 0
    encoder         : Lavf61.7.100
  Stream #0:0: Video: wrapped_avframe, yuv420p10le(tv, progressive), 1920x1080 [SAR 1:1 DAR 16:9], q=2-31, 200 kb/s, 24 fps, 24 tbn
      Metadata:
        encoder         : Lavc61.19.100 wrapped_avframe
  Stream #0:1(eng): Audio: pcm_s16le, 48000 Hz, stereo, s16, 1536 kb/s (default)
      Metadata:
        HANDLER_NAME    : SoundHandler
        VENDOR_ID       : [0][0][0][0]
        _STATISTICS_TAGS: BPS DURATION NUMBER_OF_FRAMES NUMBER_OF_BYTES
        BPS             : 130760
        DURATION        : 00:23:41.035000000
        NUMBER_OF_FRAMES: 66612
        NUMBER_OF_BYTES : 23226818
        _STATISTICS_WRITING_APP: mkvpropedit v94.0 ('Initiate') 64-bit
        _STATISTICS_WRITING_DATE_UTC: 2026-03-29 15:00:14
        encoder         : Lavc61.19.100 pcm_s16le
frame=  183 fps=0.0 q=-0.0 size=N/A time=00:00:07.62 bitrate=N/A speed=14.6x    frame=  405 fps=392 q=-0.0 size=N/A time=00:00:16.87 bitrate=N/A speed=16.3x    frame=  627 fps=406 q=-0.0 size=N/A time=00:00:26.12 bitrate=N/A speed=16.9x    frame=  857 fps=414 q=-0.0 size=N/A time=00:00:35.70 bitrate=N/A speed=17.2x    frame= 1085 fps=420 q=-0.0 size=N/A time=00:00:45.20 bitrate=N/A speed=17.5x    frame= 1306 fps=422 q=-0.0 size=N/A time=00:00:54.41 bitrate=N/A speed=17.6x    frame= 1505 fps=417 q=-0.0 size=N/A time=00:01:02.70 bitrate=N/A speed=17.4x    frame= 1729 fps=418 q=-0.0 size=N/A time=00:01:12.04 bitrate=N/A speed=17.4x    frame= 1915 fps=412 q=-0.0 size=N/A time=00:01:19.79 bitrate=N/A speed=17.2x    frame= 2061 fps=400 q=-0.0 size=N/A time=00:01:25.87 bitrate=N/A speed=16.7x    frame= 2214 fps=391 q=-0.0 size=N/A time=00:01:32.25 bitrate=N/A speed=16.3x    frame= 2400 fps=388 q=-0.0 size=N/A time=00:01:40.00 bitrate=N/A speed=16.1x    frame= 2600 fps=388 q=-0.0 size=N/A time=00:01:48.33 bitrate=N/A speed=16.2x    frame= 2818 fps=390 q=-0.0 size=N/A time=00:01:57.41 bitrate=N/A speed=16.3x    frame= 3014 fps=390 q=-0.0 size=N/A time=00:02:05.58 bitrate=N/A speed=16.3x    frame= 3161 fps=383 q=-0.0 size=N/A time=00:02:11.70 bitrate=N/A speed=  16x    frame= 3311 fps=378 q=-0.0 size=N/A time=00:02:17.95 bitrate=N/A speed=15.7x    frame= 3449 fps=372 q=-0.0 size=N/A time=00:02:23.70 bitrate=N/A speed=15.5x    frame= 3602 fps=367 q=-0.0 size=N/A time=00:02:30.08 bitrate=N/A speed=15.3x    frame= 3782 fps=367 q=-0.0 size=N/A time=00:02:37.58 bitrate=N/A speed=15.3x    frame= 3937 fps=364 q=-0.0 size=N/A time=00:02:44.04 bitrate=N/A speed=15.2x    frame= 4124 fps=364 q=-0.0 size=N/A time=00:02:51.83 bitrate=N/A speed=15.2x    frame= 4328 fps=365 q=-0.0 size=N/A time=00:03:00.33 bitrate=N/A speed=15.2x    frame= 4543 fps=367 q=-0.0 size=N/A time=00:03:09.29 bitrate=N/A speed=15.3x    frame= 4765 fps=370 q=-0.0 size=N/A time=00:03:18.54 bitrate=N/A speed=15.4x    frame= 4988 fps=372 q=-0.0 size=N/A time=00:03:27.83 bitrate=N/A speed=15.5x    frame= 5213 fps=374 q=-0.0 size=N/A time=00:03:37.20 bitrate=N/A speed=15.6x    frame= 5429 fps=376 q=-0.0 size=N/A time=00:03:46.20 bitrate=N/A speed=15.7x    frame= 5643 fps=378 q=-0.0 size=N/A time=00:03:55.12 bitrate=N/A speed=15.7x    frame= 5868 fps=379 q=-0.0 size=N/A time=00:04:04.50 bitrate=N/A speed=15.8x    frame= 6089 fps=381 q=-0.0 size=N/A time=00:04:13.70 bitrate=N/A speed=15.9x    frame= 6297 fps=382 q=-0.0 size=N/A time=00:04:22.37 bitrate=N/A speed=15.9x    frame= 6488 fps=381 q=-0.0 size=N/A time=00:04:30.33 bitrate=N/A speed=15.9x    frame= 6703 fps=382 q=-0.0 size=N/A time=00:04:39.29 bitrate=N/A speed=15.9x    frame= 6894 fps=382 q=-0.0 size=N/A time=00:04:47.25 bitrate=N/A speed=15.9x    frame= 7095 fps=382 q=-0.0 size=N/A time=00:04:55.62 bitrate=N/A speed=15.9x    frame= 7314 fps=383 q=-0.0 size=N/A time=00:05:04.75 bitrate=N/A speed=  16x    frame= 7502 fps=383 q=-0.0 size=N/A time=00:05:12.58 bitrate=N/A speed=  16x    frame= 7723 fps=384 q=-0.0 size=N/A time=00:05:21.79 bitrate=N/A speed=  16x    frame= 7922 fps=384 q=-0.0 size=N/A time=00:05:30.08 bitrate=N/A speed=  16x    frame= 8134 fps=385 q=-0.0 size=N/A time=00:05:38.91 bitrate=N/A speed=  16x    frame= 8350 fps=386 q=-0.0 size=N/A time=00:05:47.91 bitrate=N/A speed=16.1x    frame= 8538 fps=385 q=-0.0 size=N/A time=00:05:55.75 bitrate=N/A speed=  16x    frame= 8762 fps=386 q=-0.0 size=N/A time=00:06:05.08 bitrate=N/A speed=16.1x    frame= 8982 fps=387 q=-0.0 size=N/A time=00:06:14.25 bitrate=N/A speed=16.1x    frame= 9202 fps=388 q=-0.0 size=N/A time=00:06:23.41 bitrate=N/A speed=16.2x    frame= 9435 fps=389 q=-0.0 size=N/A time=00:06:33.12 bitrate=N/A speed=16.2x    frame= 9647 fps=390 q=-0.0 size=N/A time=00:06:41.95 bitrate=N/A speed=16.2x    frame= 9837 fps=389 q=-0.0 size=N/A time=00:06:49.87 bitrate=N/A speed=16.2x    frame=10057 fps=390 q=-0.0 size=N/A time=00:06:59.04 bitrate=N/A speed=16.2x    frame=10287 fps=391 q=-0.0 size=N/A time=00:07:08.62 bitrate=N/A speed=16.3x    frame=10501 fps=391 q=-0.0 size=N/A time=00:07:17.54 bitrate=N/A speed=16.3x    frame=10726 fps=392 q=-0.0 size=N/A time=00:07:26.91 bitrate=N/A speed=16.3x    frame=10919 fps=392 q=-0.0 size=N/A time=00:07:34.95 bitrate=N/A speed=16.3x    frame=11126 fps=392 q=-0.0 size=N/A time=00:07:43.58 bitrate=N/A speed=16.3x    frame=11288 fps=391 q=-0.0 size=N/A time=00:07:50.33 bitrate=N/A speed=16.3x    frame=11506 fps=391 q=-0.0 size=N/A time=00:07:59.41 bitrate=N/A speed=16.3x    frame=11726 fps=392 q=-0.0 size=N/A time=00:08:08.58 bitrate=N/A speed=16.3x    frame=11929 fps=392 q=-0.0 size=N/A time=00:08:17.04 bitrate=N/A speed=16.3x    frame=12161 fps=393 q=-0.0 size=N/A time=00:08:26.70 bitrate=N/A speed=16.4x    frame=12386 fps=394 q=-0.0 size=N/A time=00:08:36.08 bitrate=N/A speed=16.4x    frame=12603 fps=394 q=-0.0 size=N/A time=00:08:45.12 bitrate=N/A speed=16.4x    frame=12818 fps=394 q=-0.0 size=N/A time=00:08:54.08 bitrate=N/A speed=16.4x    frame=13048 fps=395 q=-0.0 size=N/A time=00:09:03.66 bitrate=N/A speed=16.5x    frame=13263 fps=396 q=-0.0 size=N/A time=00:09:12.62 bitrate=N/A speed=16.5x    frame=13481 fps=396 q=-0.0 size=N/A time=00:09:21.70 bitrate=N/A speed=16.5x    frame=13701 fps=396 q=-0.0 size=N/A time=00:09:30.87 bitrate=N/A speed=16.5x    frame=13935 fps=397 q=-0.0 size=N/A time=00:09:40.62 bitrate=N/A speed=16.6x    frame=14140 fps=397 q=-0.0 size=N/A time=00:09:49.16 bitrate=N/A speed=16.6x    frame=14358 fps=398 q=-0.0 size=N/A time=00:09:58.25 bitrate=N/A speed=16.6x    frame=14578 fps=398 q=-0.0 size=N/A time=00:10:07.41 bitrate=N/A speed=16.6x    frame=14795 fps=398 q=-0.0 size=N/A time=00:10:16.45 bitrate=N/A speed=16.6x    frame=14991 fps=398 q=-0.0 size=N/A time=00:10:24.62 bitrate=N/A speed=16.6x    frame=15207 fps=398 q=-0.0 size=N/A time=00:10:33.62 bitrate=N/A speed=16.6x    frame=15431 fps=399 q=-0.0 size=N/A time=00:10:42.95 bitrate=N/A speed=16.6x    frame=15636 fps=399 q=-0.0 size=N/A time=00:10:51.50 bitrate=N/A speed=16.6x    frame=15870 fps=399 q=-0.0 size=N/A time=00:11:01.25 bitrate=N/A speed=16.6x    frame=16107 fps=400 q=-0.0 size=N/A time=00:11:11.12 bitrate=N/A speed=16.7x    frame=16284 fps=399 q=-0.0 size=N/A time=00:11:18.50 bitrate=N/A speed=16.6x    frame=16506 fps=400 q=-0.0 size=N/A time=00:11:27.75 bitrate=N/A speed=16.7x    frame=16717 fps=400 q=-0.0 size=N/A time=00:11:36.54 bitrate=N/A speed=16.7x    frame=16928 fps=400 q=-0.0 size=N/A time=00:11:45.33 bitrate=N/A speed=16.7x    frame=17148 fps=400 q=-0.0 size=N/A time=00:11:54.50 bitrate=N/A speed=16.7x    frame=17359 fps=401 q=-0.0 size=N/A time=00:12:03.29 bitrate=N/A speed=16.7x    frame=17564 fps=400 q=-0.0 size=N/A time=00:12:11.83 bitrate=N/A speed=16.7x    frame=17759 fps=400 q=-0.0 size=N/A time=00:12:19.95 bitrate=N/A speed=16.7x    frame=17970 fps=400 q=-0.0 size=N/A time=00:12:28.75 bitrate=N/A speed=16.7x    frame=18183 fps=400 q=-0.0 size=N/A time=00:12:37.62 bitrate=N/A speed=16.7x    frame=18407 fps=401 q=-0.0 size=N/A time=00:12:46.95 bitrate=N/A speed=16.7x    frame=18621 fps=401 q=-0.0 size=N/A time=00:12:55.87 bitrate=N/A speed=16.7x    frame=18855 fps=402 q=-0.0 size=N/A time=00:13:05.62 bitrate=N/A speed=16.7x    frame=19078 fps=402 q=-0.0 size=N/A time=00:13:14.91 bitrate=N/A speed=16.7x    frame=19309 fps=402 q=-0.0 size=N/A time=00:13:24.54 bitrate=N/A speed=16.8x    frame=19533 fps=403 q=-0.0 size=N/A time=00:13:33.87 bitrate=N/A speed=16.8x    frame=19756 fps=403 q=-0.0 size=N/A time=00:13:43.16 bitrate=N/A speed=16.8x    frame=19970 fps=403 q=-0.0 size=N/A time=00:13:52.08 bitrate=N/A speed=16.8x    frame=20167 fps=403 q=-0.0 size=N/A time=00:14:00.29 bitrate=N/A speed=16.8x    frame=20391 fps=403 q=-0.0 size=N/A time=00:14:09.62 bitrate=N/A speed=16.8x    frame=20610 fps=403 q=-0.0 size=N/A time=00:14:18.75 bitrate=N/A speed=16.8x    frame=20835 fps=404 q=-0.0 size=N/A time=00:14:28.12 bitrate=N/A speed=16.8x    frame=21071 fps=404 q=-0.0 size=N/A time=00:14:37.95 bitrate=N/A speed=16.8x    frame=21287 fps=405 q=-0.0 size=N/A time=00:14:46.95 bitrate=N/A speed=16.9x    frame=21509 fps=405 q=-0.0 size=N/A time=00:14:56.20 bitrate=N/A speed=16.9x    frame=21744 fps=405 q=-0.0 size=N/A time=00:15:06.00 bitrate=N/A speed=16.9x    frame=21948 fps=405 q=-0.0 size=N/A time=00:15:14.50 bitrate=N/A speed=16.9x    frame=22115 fps=404 q=-0.0 size=N/A time=00:15:21.45 bitrate=N/A speed=16.9x    frame=22334 fps=405 q=-0.0 size=N/A time=00:15:30.58 bitrate=N/A speed=16.9x    frame=22558 fps=405 q=-0.0 size=N/A time=00:15:39.91 bitrate=N/A speed=16.9x    frame=22780 fps=405 q=-0.0 size=N/A time=00:15:49.16 bitrate=N/A speed=16.9x    frame=23010 fps=406 q=-0.0 size=N/A time=00:15:58.75 bitrate=N/A speed=16.9x    frame=23234 fps=406 q=-0.0 size=N/A time=00:16:08.08 bitrate=N/A speed=16.9x    frame=23467 fps=406 q=-0.0 size=N/A time=00:16:17.79 bitrate=N/A speed=16.9x    frame=23668 fps=406 q=-0.0 size=N/A time=00:16:26.16 bitrate=N/A speed=16.9x    frame=23873 fps=406 q=-0.0 size=N/A time=00:16:34.70 bitrate=N/A speed=16.9x    frame=24080 fps=406 q=-0.0 size=N/A time=00:16:43.33 bitrate=N/A speed=16.9x    frame=24242 fps=405 q=-0.0 size=N/A time=00:16:50.08 bitrate=N/A speed=16.9x    frame=24464 fps=405 q=-0.0 size=N/A time=00:16:59.33 bitrate=N/A speed=16.9x    frame=24692 fps=406 q=-0.0 size=N/A time=00:17:08.83 bitrate=N/A speed=16.9x    frame=24927 fps=406 q=-0.0 size=N/A time=00:17:18.62 bitrate=N/A speed=16.9x    frame=25145 fps=406 q=-0.0 size=N/A time=00:17:27.70 bitrate=N/A speed=16.9x    frame=25373 fps=407 q=-0.0 size=N/A time=00:17:37.20 bitrate=N/A speed=16.9x    frame=25598 fps=407 q=-0.0 size=N/A time=00:17:46.58 bitrate=N/A speed=16.9x    frame=25823 fps=407 q=-0.0 size=N/A time=00:17:55.95 bitrate=N/A speed=  17x    frame=26030 fps=407 q=-0.0 size=N/A time=00:18:04.58 bitrate=N/A speed=  17x    frame=26264 fps=407 q=-0.0 size=N/A time=00:18:14.33 bitrate=N/A speed=  17x    frame=26502 fps=408 q=-0.0 size=N/A time=00:18:24.25 bitrate=N/A speed=  17x    frame=26696 fps=407 q=-0.0 size=N/A time=00:18:32.33 bitrate=N/A speed=  17x    frame=26907 fps=407 q=-0.0 size=N/A time=00:18:41.12 bitrate=N/A speed=  17x    frame=27136 fps=408 q=-0.0 size=N/A time=00:18:50.66 bitrate=N/A speed=  17x    frame=27365 fps=408 q=-0.0 size=N/A time=00:19:00.20 bitrate=N/A speed=  17x    frame=27586 fps=408 q=-0.0 size=N/A time=00:19:09.41 bitrate=N/A speed=  17x    frame=27783 fps=408 q=-0.0 size=N/A time=00:19:17.62 bitrate=N/A speed=  17x    frame=28002 fps=408 q=-0.0 size=N/A time=00:19:26.75 bitrate=N/A speed=  17x    frame=28237 fps=408 q=-0.0 size=N/A time=00:19:36.54 bitrate=N/A speed=  17x    frame=28462 fps=409 q=-0.0 size=N/A time=00:19:45.91 bitrate=N/A speed=  17x    frame=28691 fps=409 q=-0.0 size=N/A time=00:19:55.45 bitrate=N/A speed=  17x    frame=28917 fps=409 q=-0.0 size=N/A time=00:20:04.87 bitrate=N/A speed=  17x    frame=29151 fps=409 q=-0.0 size=N/A time=00:20:14.62 bitrate=N/A speed=17.1x    frame=29350 fps=409 q=-0.0 size=N/A time=00:20:22.91 bitrate=N/A speed=17.1x    frame=29566 fps=409 q=-0.0 size=N/A time=00:20:31.91 bitrate=N/A speed=17.1x    frame=29793 fps=409 q=-0.0 size=N/A time=00:20:41.37 bitrate=N/A speed=17.1x    frame=30017 fps=410 q=-0.0 size=N/A time=00:20:50.70 bitrate=N/A speed=17.1x    frame=30244 fps=410 q=-0.0 size=N/A time=00:21:00.16 bitrate=N/A speed=17.1x    frame=30464 fps=410 q=-0.0 size=N/A time=00:21:09.33 bitrate=N/A speed=17.1x    frame=30678 fps=410 q=-0.0 size=N/A time=00:21:18.25 bitrate=N/A speed=17.1x    frame=30892 fps=410 q=-0.0 size=N/A time=00:21:27.16 bitrate=N/A speed=17.1x    frame=31099 fps=410 q=-0.0 size=N/A time=00:21:35.79 bitrate=N/A speed=17.1x    frame=31308 fps=410 q=-0.0 size=N/A time=00:21:44.50 bitrate=N/A speed=17.1x    frame=31512 fps=410 q=-0.0 size=N/A time=00:21:53.00 bitrate=N/A speed=17.1x    frame=31724 fps=410 q=-0.0 size=N/A time=00:22:01.83 bitrate=N/A speed=17.1x    frame=31940 fps=410 q=-0.0 size=N/A time=00:22:10.83 bitrate=N/A speed=17.1x    frame=32164 fps=410 q=-0.0 size=N/A time=00:22:20.16 bitrate=N/A speed=17.1x    frame=32383 fps=410 q=-0.0 size=N/A time=00:22:29.29 bitrate=N/A speed=17.1x    frame=32608 fps=410 q=-0.0 size=N/A time=00:22:38.66 bitrate=N/A speed=17.1x    frame=32821 fps=410 q=-0.0 size=N/A time=00:22:47.54 bitrate=N/A speed=17.1x    frame=33048 fps=411 q=-0.0 size=N/A time=00:22:57.00 bitrate=N/A speed=17.1x    frame=33244 fps=410 q=-0.0 size=N/A time=00:23:05.16 bitrate=N/A speed=17.1x    frame=33445 fps=410 q=-0.0 size=N/A time=00:23:13.54 bitrate=N/A speed=17.1x    frame=33646 fps=410 q=-0.0 size=N/A time=00:23:21.91 bitrate=N/A speed=17.1x    frame=33869 fps=410 q=-0.0 size=N/A time=00:23:31.20 bitrate=N/A speed=17.1x    frame=34064 fps=410 q=-0.0 size=N/A time=00:23:39.33 bitrate=N/A speed=17.1x    [Parsed_ssim_14 @ 0000025a9f881880] SSIM Y:0.992429 (21.208538) U:0.994922 (22.943266) V:0.995212 (23.198640) All:0.993308 (21.744756)
[out#0/null @ 0000025a9315eb80] video:14655KiB audio:266448KiB subtitle:0KiB other streams:0KiB global headers:0KiB muxing overhead: unknown
frame=34107 fps=410 q=-0.0 Lsize=N/A time=00:23:41.05 bitrate=N/A speed=17.1x    
